<svg xmlns="http://www.w3.org/2000/svg" viewBox="0 0 158.84 24.26"><defs><style>.cls-1{fill:#191919;}</style></defs><g id="Capa_2" data-name="Capa 2"><g id="Capa_1-2" data-name="Capa 1"><path class="cls-1" d="M5.35.69,11.9,19.36,18.44.69H23.8L15.1,23.57H8.69L0,.69Z"/><path class="cls-1" d="M46.31,19.41a5.7,5.7,0,0,0,2.88-1.1v4.53c-1.1,1.24-3.62,1.51-4.9,1.37-3.29,0-4-3.38-4-3.61V16.25c-2.24,5.4-6.08,8-9.52,8a5.2,5.2,0,0,1-5.62-5.53c0-5.36,5.35-7.6,8.37-8.38a39.24,39.24,0,0,1,6.73-1c-.37-2.52-1.7-3.76-4.08-3.76l-9.88,0V.69H36.79c4.57,0,8.56,2.84,8.51,10.62V19A1.42,1.42,0,0,0,46.31,19.41Zm-6-7.55c-3,.41-10,1.88-10.25,5.54a2.64,2.64,0,0,0,2.42,3.06c3,.41,7.1-2.79,7.83-7.82Z"/><path class="cls-1" d="M58.17,11.81,51.67.69H57l4.85,8.65L66.68.69H72l-6.5,11.12,7.09,11.76H66.86l-5-9.19-5.08,9.19H51.08Z"/><path class="cls-1" d="M85.45,24.26c-7,0-12-5-12-12.13S77.77.24,84,0c8.15-.28,12.27,7.32,7,11.25-.64,1.47-3.29,2.57-11.9,4.35A7.07,7.07,0,0,0,86,19.87a13.62,13.62,0,0,0,7.27-2.43l1,4A14.82,14.82,0,0,1,85.45,24.26ZM78.68,12.82c5.63-1.24,9.47-2.1,10.21-3.71,1.78-1.92-.33-5.4-4.67-4.71C80.6,4.67,78.18,8.11,78.68,12.82Z"/><path class="cls-1" d="M111.56,5.13a3.88,3.88,0,0,0-2.48-.36c-3.43.23-6,3.93-6,9.1v9.7H98.15V.69h4.94V5.27c1.46-3.34,3.75-5.26,6.5-5.26a5,5,0,0,1,2,.41Z"/><path class="cls-1" d="M134.71,19.41a5.63,5.63,0,0,0,2.88-1.1v4.53c-1.09,1.24-3.61,1.51-4.89,1.37-3.3,0-4-3.38-4-3.61V16.25c-2.25,5.4-6.09,8-9.52,8a5.21,5.21,0,0,1-5.63-5.53c0-5.36,5.35-7.6,8.37-8.38a39.39,39.39,0,0,1,6.73-1c-.37-2.52-1.69-3.76-4.07-3.76l-9.89,0V.69h10.48c4.58,0,8.56,2.84,8.51,10.62V19A1.43,1.43,0,0,0,134.71,19.41Zm-6-7.55c-3,.41-10,1.88-10.25,5.54a2.66,2.66,0,0,0,2.43,3.06c3,.41,7.09-2.79,7.82-7.82Z"/><path class="cls-1" d="M141,17.26a18.72,18.72,0,0,0,8.74,2.61c2.56,0,4-1,4-2.24,0-3.71-13.09-3.71-13.09-11.67,0-3.8,3-5.95,8-5.95a19.57,19.57,0,0,1,9.61,2.65l-1.37,4.17a16.71,16.71,0,0,0-7.74-2.43c-2.15,0-3.38.69-3.38,2.11,0,4.57,13.13,4.21,13.13,11.44,0,3.61-3.34,6.31-9,6.31a19.41,19.41,0,0,1-10-2.84Z"/></g></g></svg>